<svg width="74" height="62" viewBox="0 0 74 62" fill="none" xmlns="http://www.w3.org/2000/svg">
<path d="M64.5 5.16839L70.5 1.66839C70.5 3.26838 67.8333 7.00172 66.5 8.66839L72.5 10.1684L66.5 14.6684C61.7 69.0684 20.8333 64.3351 1 55.1684C11 57.1684 18.5 51.0017 21 47.6684C12.6 48.4684 8.5 41.3351 7.5 37.6684L13 37.1684C4.2 32.7684 1.66667 25.0017 1.5 21.6684C2.3 22.4684 5.83333 22.3351 7.5 22.1684C0.299999 17.7684 2.16667 8.00172 4 3.66839C22 20.4684 32.8333 20.6684 36 18.6684C36.4 -4.53161 53.5 0.00172138 62 5.16839H64.5Z" fill="white" stroke="white"/>
</svg>
